<svg width="24" viewBox="0 0 24 24" height="24" fill="#FFFFFF" xmlns="http://www.w3.org/2000/svg">
  <path fill="none" d="M0 0h24v24H0z" />
  <path d="M 2,6 4,6 4,4 C 2.9,4 2,4.9 2,6 Z m 0,8 2,0 0,-2 -2,0 z m 4,8 2,0 0,-2 -2,0 z M 2,10 4,10 4,8 2,8 Z m 2,12 0,-2 -2,0 c 0,1.1 0.9,2 2,2 z M 2,18 4,18 4,16 2,16 Z M 8,4 6,4 6,6 8,6 Z m 2,18 2,0 0,-2 -2,0 z m 8,0 c 1.1,0 2,-0.9 2,-2 l -2,0 z m 0,-4 2,0 0,-2 -2,0 z m -4,4 2,0 0,-2 -2,0 z" />
  <path d="m 6,8 2,0 0,8 8,0 0,2 -10,0 z" />
  <path d="M 23,2.4099995 21.59,0.99999951 16,6.5899995 10.41,0.99999951 9,2.4099995 l 5.59,5.59 L 9,13.59 10.41,15 16,9.4099999 21.59,15 23,13.59 17.41,7.9999995 Z" />
</svg>
