<svg width="24" viewBox="0 0 24 24" height="24" fill="#FFFFFF" xmlns="http://www.w3.org/2000/svg">
  <path fill="none" d="M0 0h24v24H0z" />
  <path d="M 2,6 4,6 4,4 C 2.9,4 2,4.9 2,6 Z m 0,8 2,0 0,-2 -2,0 z m 4,8 2,0 0,-2 -2,0 z M 2,10 4,10 4,8 2,8 Z m 2,12 0,-2 -2,0 c 0,1.1 0.9,2 2,2 z M 2,18 4,18 4,16 2,16 Z M 8,4 6,4 6,6 8,6 Z m 2,18 2,0 0,-2 -2,0 z m 8,0 c 1.1,0 2,-0.9 2,-2 l -2,0 z m 0,-4 2,0 0,-2 -2,0 z m -4,4 2,0 0,-2 -2,0 z" />
  <path d="m 6,8 2,0 0,8 8,0 0,2 -10,0 z"/>
  <path d="m 18.91579,0.99999982 -7.642106,0 C 10.573158,0.99999982 10,1.5727278 10,2.2727278 l 0,8.9090902 1.273684,0 0,-8.9090902 7.642106,0 0,-1.27272798 z m 1.910526,2.54545498 -7.005263,0 c -0.700526,0 -1.273685,0.572727 -1.273685,1.272727 l 0,8.9090912 c 0,0.7 0.573159,1.272727 1.273685,1.272727 l 7.005263,0 C 21.526842,15 22.1,14.427273 22.1,13.727273 l 0,-8.9090912 c 0,-0.7 -0.573158,-1.272727 -1.273684,-1.272727 z m 0,10.1818182 -7.005263,0 0,-8.9090912 7.005263,0 0,8.9090912 z" />
</svg>
