<svg width="24" viewBox="0 0 24 24" height="24" fill="#FFFFFF" xmlns="http://www.w3.org/2000/svg">
  <path fill="none" d="M0 0h24v24H0z" />
  <path d="M 2,6 4,6 4,4 C 2.9,4 2,4.9 2,6 Z m 0,8 2,0 0,-2 -2,0 z m 4,8 2,0 0,-2 -2,0 z M 2,10 4,10 4,8 2,8 Z m 2,12 0,-2 -2,0 c 0,1.1 0.9,2 2,2 z M 2,18 4,18 4,16 2,16 Z M 8,4 6,4 6,6 8,6 Z m 2,18 2,0 0,-2 -2,0 z m 8,0 c 1.1,0 2,-0.9 2,-2 l -2,0 z m 0,-4 2,0 0,-2 -2,0 z m -4,4 2,0 0,-2 -2,0 z" />
  <path d="m 6,8 2,0 0,8 8,0 0,2 -10,0 z" />
  <path d="m 14.348,4.9479998 c 0.161,-0.35 0.252,-0.735 0.252,-1.148 0,-1.547 -1.253,-2.8 -2.8,-2.8 -1.547,0 -2.8,1.253 -2.8,2.8 0,1.547 1.253,2.8 2.8,2.8 0.413,0 0.798,-0.091 1.148,-0.252 l 1.652,1.652 -1.652,1.652 c -0.35,-0.161 -0.735,-0.252 -1.148,-0.252 C 10.253,9.3999998 9,10.653 9,12.2 c 0,1.547 1.253,2.8 2.8,2.8 1.547,0 2.8,-1.253 2.8,-2.8 0,-0.413 -0.091,-0.798 -0.252,-1.148 L 16,9.3999998 20.9,14.3 l 2.1,0 0,-0.7 -8.652,-8.6520002 z m -2.548,0.252 c -0.77,0 -1.4,-0.623 -1.4,-1.4 0,-0.777 0.63,-1.4 1.4,-1.4 0.77,0 1.4,0.623 1.4,1.4 0,0.777 -0.63,1.4 -1.4,1.4 z M 11.8,13.6 c -0.77,0 -1.4,-0.623 -1.4,-1.4 0,-0.777 0.63,-1.4 1.4,-1.4 0.77,0 1.4,0.623 1.4,1.4 0,0.777 -0.63,1.4 -1.4,1.4 z M 16,8.3499998 c -0.196,0 -0.35,-0.154 -0.35,-0.35 0,-0.196 0.154,-0.35 0.35,-0.35 0.196,0 0.35,0.154 0.35,0.35 0,0.196 -0.154,0.35 -0.35,0.35 z m 4.9,-6.65 -4.2,4.2 1.4,1.4 4.9,-4.9 0,-0.7 z" />
</svg>
